nColumns=19																		
nRows=27																		
DataType=double																		
version=3																		
OpenSimVersion=4.4-2022-07-23-0e9fedc																		
endheader																		
time	ground_force_1_vx	ground_force_1_vy	ground_force_1_vz	ground_force_1_px	ground_force_1_py	ground_force_1_pz	ground_moment_1_mx	ground_moment_1_my	ground_moment_1_mz	ground_force_2_vx	ground_force_2_vy	ground_force_2_vz	ground_force_2_px	ground_force_2_py	ground_force_2_pz	ground_moment_2_mx	ground_moment_2_my	ground_moment_2_mz
    3.00000000000000	  -61.87405552000000	  663.34901630000002	   56.10786553000000	    0.87746804017266	    0.00000000000000	    0.38702111065161	    0.00000000000000	    4.85509500613588	    0.00000000000000	    0.00000000000000	    0.00000000000000	    0.00000000000000	                 NaN	    0.00000000000000	                 NaN	    0.00000000000000	                 NaN	    0.00000000000000
    3.00500000000000	  -60.22429866000000	  657.12993789999996	   54.83974962000000	    0.87492790542097	    0.00000000000000	    0.38694575853480	    0.00000000000000	    4.59683244637302	    0.00000000000000	    0.00000000000000	    0.00000000000000	    0.00000000000000	                 NaN	    0.00000000000000	                 NaN	    0.00000000000000	                 NaN	    0.00000000000000
    3.01000000000000	  -58.58947731000000	  651.74745680000001	   53.39953498000000	    0.87231064474776	    0.00000000000000	    0.38695177325451	    0.00000000000000	    4.37700412188592	    0.00000000000000	    0.00000000000000	    0.00000000000000	    0.00000000000000	                 NaN	    0.00000000000000	                 NaN	    0.00000000000000	                 NaN	    0.00000000000000
    3.01500000000000	  -57.03488541000000	  647.04456840000000	   51.67384460000000	    0.86965924270783	    0.00000000000000	    0.38703951258675	    0.00000000000000	    4.21802576886973	    0.00000000000000	    0.00000000000000	    0.00000000000000	    0.00000000000000	                 NaN	    0.00000000000000	                 NaN	    0.00000000000000	                 NaN	    0.00000000000000
    3.02000000000000	  -55.26595670000000	  642.87213880000002	   49.88901127000000	    0.86661976368219	    0.00000000000000	    0.38721253361319	    0.00000000000000	    4.05575731285151	    0.00000000000000	    0.00000000000000	    0.00000000000000	    0.00000000000000	                 NaN	    0.00000000000000	                 NaN	    0.00000000000000	                 NaN	    0.00000000000000
    3.02500000000000	  -53.03831597000000	  639.19627119999996	   48.34492257000000	    0.86303330722446	    0.00000000000000	    0.38745389505633	    0.00000000000000	    3.83656263139229	    0.00000000000000	    0.00000000000000	    0.00000000000000	    0.00000000000000	                 NaN	    0.00000000000000	                 NaN	    0.00000000000000	                 NaN	    0.00000000000000
    3.03000000000000	  -50.55067417000000	  636.03472790000001	   47.08131741000000	    0.85915197163287	    0.00000000000000	    0.38773441282818	    0.00000000000000	    3.59691479712217	    0.00000000000000	    0.00000000000000	    0.00000000000000	    0.00000000000000	                 NaN	    0.00000000000000	                 NaN	    0.00000000000000	                 NaN	    0.00000000000000
    3.03500000000000	  -48.14390754000000	  633.40645629999995	   45.91641024000000	    0.85515437869593	    0.00000000000000	    0.38802363218362	    0.00000000000000	    3.40158741999790	    0.00000000000000	    0.00000000000000	    0.00000000000000	    0.00000000000000	                 NaN	    0.00000000000000	                 NaN	    0.00000000000000	                 NaN	    0.00000000000000
    3.04000000000000	  -45.77061742000000	  631.29621259999999	   44.76226364000000	    0.85083344884373	    0.00000000000000	    0.38831616819708	    0.00000000000000	    3.24069060653415	    0.00000000000000	    0.00000000000000	    0.00000000000000	    0.00000000000000	                 NaN	    0.00000000000000	                 NaN	    0.00000000000000	                 NaN	    0.00000000000000
    3.04500000000000	  -43.11566615000000	  629.61062640000000	   43.71697567000000	    0.84597538566601	    0.00000000000000	    0.38862515233787	    0.00000000000000	    3.04573964013433	    0.00000000000000	    0.00000000000000	    0.00000000000000	    0.00000000000000	                 NaN	    0.00000000000000	                 NaN	    0.00000000000000	                 NaN	    0.00000000000000
    3.05000000000000	  -40.19541432000000	  628.23624819999998	   42.90736194000000	    0.84074962534624	    0.00000000000000	    0.38895761074794	    0.00000000000000	    2.81829663563331	    0.00000000000000	    0.00000000000000	    0.00000000000000	    0.00000000000000	                 NaN	    0.00000000000000	                 NaN	    0.00000000000000	                 NaN	    0.00000000000000
    3.05500000000000	  -37.39604552000000	  627.18744330000004	   42.31020228000000	    0.83549780207633	    0.00000000000000	    0.38928777147806	    0.00000000000000	    2.61991083885368	    0.00000000000000	    0.00000000000000	    0.00000000000000	    0.00000000000000	                 NaN	    0.00000000000000	                 NaN	    0.00000000000000	                 NaN	    0.00000000000000
    3.06000000000000	  -34.88406052000000	  626.50382930000001	   41.77693539000000	    0.83031384085336	    0.00000000000000	    0.38960637034191	    0.00000000000000	    2.47323437944020	    0.00000000000000	    0.00000000000000	    0.00000000000000	    0.00000000000000	                 NaN	    0.00000000000000	                 NaN	    0.00000000000000	                 NaN	    0.00000000000000
    3.06500000000000	  -32.40292346000000	  626.04158050000001	   41.15712270000000	    0.82502104765659	    0.00000000000000	    0.38995370827258	    0.00000000000000	    2.33433257526847	    0.00000000000000	    0.00000000000000	    0.00000000000000	    0.00000000000000	                 NaN	    0.00000000000000	                 NaN	    0.00000000000000	                 NaN	    0.00000000000000
    3.07000000000000	  -29.79736263000000	  625.62641840000003	   40.43657990000000	    0.81945607374140	    0.00000000000000	    0.39036683859999	    0.00000000000000	    2.16160700040698	    0.00000000000000	    0.00000000000000	    0.00000000000000	    0.00000000000000	                 NaN	    0.00000000000000	                 NaN	    0.00000000000000	                 NaN	    0.00000000000000
    3.07500000000000	  -27.27987187000000	  625.34454589999996	   39.73338014000000	    0.81376232719688	    0.00000000000000	    0.39080982223601	    0.00000000000000	    1.98150096615263	    0.00000000000000	    0.00000000000000	    0.00000000000000	    0.00000000000000	                 NaN	    0.00000000000000	                 NaN	    0.00000000000000	                 NaN	    0.00000000000000
    3.08000000000000	  -25.03030720000000	  625.42093969999996	   39.15309551000000	    0.80825368302452	    0.00000000000000	    0.39121852956968	    0.00000000000000	    1.82531473491553	    0.00000000000000	    0.00000000000000	    0.00000000000000	    0.00000000000000	                 NaN	    0.00000000000000	                 NaN	    0.00000000000000	                 NaN	    0.00000000000000
    3.08500000000000	  -22.91702755000000	  625.87757760000000	   38.67101204000000	    0.80296191043870	    0.00000000000000	    0.39160372515342	    0.00000000000000	    1.67694601900387	    0.00000000000000	    0.00000000000000	    0.00000000000000	    0.00000000000000	                 NaN	    0.00000000000000	                 NaN	    0.00000000000000	                 NaN	    0.00000000000000
    3.09000000000000	  -20.73132868000000	  626.60875199999998	   38.13216153000000	    0.79760230545870	    0.00000000000000	    0.39200270478061	    0.00000000000000	    1.52672320423737	    0.00000000000000	    0.00000000000000	    0.00000000000000	    0.00000000000000	                 NaN	    0.00000000000000	                 NaN	    0.00000000000000	                 NaN	    0.00000000000000
    3.09500000000000	  -18.46078007000000	  627.62946409999995	   37.47731595000000	    0.79204149299360	    0.00000000000000	    0.39242160562003	    0.00000000000000	    1.37977814965666	    0.00000000000000	    0.00000000000000	    0.00000000000000	    0.00000000000000	                 NaN	    0.00000000000000	                 NaN	    0.00000000000000	                 NaN	    0.00000000000000
    3.10000000000000	  -16.19737108000000	  629.09299129999999	   36.80390362000000	    0.78652233577701	    0.00000000000000	    0.39280534810511	    0.00000000000000	    1.23879280342523	    0.00000000000000	    0.00000000000000	    0.00000000000000	    0.00000000000000	                 NaN	    0.00000000000000	                 NaN	    0.00000000000000	                 NaN	    0.00000000000000
    3.10500000000000	  -13.96609188000000	  631.01192630000003	   36.25715145000000	    0.78122054541463	    0.00000000000000	    0.39312449216078	    0.00000000000000	    1.12154161390744	    0.00000000000000	    0.00000000000000	    0.00000000000000	    0.00000000000000	                 NaN	    0.00000000000000	                 NaN	    0.00000000000000	                 NaN	    0.00000000000000
    3.11000000000000	  -11.68037027000000	  633.14593890000003	   35.85143428000000	    0.77592927968421	    0.00000000000000	    0.39342014864851	    0.00000000000000	    1.01352563195527	    0.00000000000000	    0.00000000000000	    0.00000000000000	    0.00000000000000	                 NaN	    0.00000000000000	                 NaN	    0.00000000000000	                 NaN	    0.00000000000000
    3.11500000000000	   -9.19393907400000	  635.28349270000001	   35.46750035000000	    0.77043822467541	    0.00000000000000	    0.39373639976577	    0.00000000000000	    0.90412291342256	    0.00000000000000	    0.00000000000000	    0.00000000000000	    0.00000000000000	                 NaN	    0.00000000000000	                 NaN	    0.00000000000000	                 NaN	    0.00000000000000
    3.12000000000000	   -6.48379191400000	  637.47922080000001	   35.01042997000000	    0.76482889165180	    0.00000000000000	    0.39404085085322	    0.00000000000000	    0.80230560161561	    0.00000000000000	    0.00000000000000	    0.00000000000000	    0.00000000000000	                 NaN	    0.00000000000000	                 NaN	    0.00000000000000	                 NaN	    0.00000000000000
    3.12500000000000	   -3.68683722500000	  639.78962860000001	   34.55000961000000	    0.75929859288569	    0.00000000000000	    0.39428873278513	    0.00000000000000	    0.71334951559644	    0.00000000000000	    0.00000000000000	    0.00000000000000	    0.00000000000000	                 NaN	    0.00000000000000	                 NaN	    0.00000000000000	                 NaN	    0.00000000000000
    3.13000000000000	   -0.87006342300000	  642.04905329999997	   34.25284798000000	    0.75386599203482	    0.00000000000000	    0.39449341590872	    0.00000000000000	    0.63367061324821	    0.00000000000000	    0.00000000000000	    0.00000000000000	    0.00000000000000	                 NaN	    0.00000000000000	                 NaN	    0.00000000000000	                 NaN	    0.00000000000000
